<svg width="1000" height="204" viewBox="0 0 1000 204" fill="none" xmlns="http://www.w3.org/2000/svg">
  <path d="M387.074 3.27002C376.442 3.27002 367.907 11.8057 367.907 22.4379V105.099L364.612 101.805L272.966 10.0087C270.72 7.76249 268.024 6.11525 265.029 5.21676C262.483 4.01876 259.788 3.27002 256.793 3.27002C246.161 3.27002 237.625 11.8057 237.625 22.4379V178.926C237.625 189.558 246.161 198.093 256.793 198.093C267.425 198.093 275.961 189.558 275.961 178.926V70.9565L364.462 159.608L367.757 162.902V178.926C367.757 189.558 376.293 198.093 386.925 198.093C397.557 198.093 406.093 189.558 406.093 178.926V22.5876C406.392 11.9555 397.707 3.27002 387.074 3.27002Z" fill="#051C97"/>
  <path d="M542.665 126.213C539.22 128.609 536.824 132.053 535.477 135.947C532.931 142.835 528.289 149.125 521.849 153.617C508.372 163.052 490.851 162.303 478.272 153.168L536.375 112.586L559.586 96.4132C564.977 92.6695 566.475 85.182 562.731 79.7911L562.581 79.6413C537.873 44.4503 488.755 36.6634 454.313 63.0192C423.764 86.5298 415.827 130.706 436.193 163.351C459.404 200.339 508.672 210.073 544.012 185.364C557.639 175.93 567.074 162.752 572.165 148.077C578.005 130.406 557.789 115.581 542.665 126.213ZM478.871 92.37C491.151 83.8343 506.725 83.6846 518.854 90.573L463.447 129.358C461.201 115.581 466.742 100.906 478.871 92.37Z" fill="#051C97"/>
  <path d="M709.636 47.146C699.004 47.146 690.468 55.6817 690.468 66.3139V160.057H663.962C646.741 160.057 632.665 145.98 632.665 128.759V66.6134C632.665 55.9812 624.129 47.4455 613.497 47.4455C602.865 47.4455 594.329 55.9812 594.329 66.6134V128.759C594.329 167.245 625.477 198.542 664.112 198.542H707.689C708.288 198.542 709.037 198.692 709.636 198.692C719.22 198.692 727.156 191.504 728.504 182.369C728.804 181.022 728.953 179.824 728.953 178.326V66.3139C728.804 55.6817 720.118 47.146 709.636 47.146Z" fill="#051C97"/>
  <path d="M812.66 28.4268L756.355 169.64C751.563 181.77 760.547 195.097 773.576 195.097C781.213 195.097 787.952 190.455 790.797 183.417L837.818 65.5646C840.364 59.2751 849.349 59.2751 851.894 65.5646L898.915 183.417C901.761 190.455 908.499 195.097 916.137 195.097C929.314 195.097 938.299 181.919 933.358 169.64L877.052 28.4268C871.811 15.2489 859.082 6.56348 844.856 6.56348C830.63 6.56348 817.901 15.2489 812.66 28.4268Z" fill="#051C97"/>
  <path d="M980.83 198.393C970.198 198.393 961.663 189.707 961.663 179.225V22.4379C961.663 11.9555 970.198 3.27002 980.83 3.27002C991.463 3.27002 999.998 11.9555 999.998 22.4379V179.075C1000.15 189.857 991.463 198.393 980.83 198.393Z" fill="#051C97"/>
  <path d="M918.983 138.043C918.983 148.675 910.297 157.211 899.815 157.211H793.792C783.16 157.211 774.625 148.525 774.625 138.043C774.625 127.411 783.31 118.875 793.792 118.875H899.815C910.297 118.725 918.983 127.411 918.983 138.043Z" fill="#051C97"/>
  <path d="M99.8922 79.2837L69.3057 188.9C64.8857 204.812 43.6697 207.818 34.8297 193.85L2.82881 142.578C0 137.981 -0.707201 132.501 0.707201 127.373L32.3545 13.8676C36.9513 -2.39808 58.8745 -5.05009 67.1841 9.62434L98.1242 64.6093C100.599 69.2061 101.13 74.3333 99.8922 79.2837Z" fill="#051C97"/>
  <circle cx="140.314" cy="163.401" r="39.9335" fill="#08D9D6"/>
  </svg>
  